<svg width="44" height="44" viewBox="0 0 44 44" fill="none" xmlns="http://www.w3.org/2000/svg">
<path d="M33.2301 3.56162L33.2302 3.56173C33.3059 3.80557 33.3832 4.04559 33.4339 4.19806C33.3778 4.24113 33.2999 4.29637 33.202 4.36173C32.9637 4.52081 32.6249 4.72797 32.2418 4.9436L32.2416 4.94369C31.016 5.63471 28.5684 6.93297 26.3595 8.07939C25.2556 8.65234 24.2127 9.18662 23.4135 9.58736C23.0138 9.7878 22.6759 9.95436 22.4223 10.0755C22.1586 10.2014 22.0071 10.2677 21.9644 10.2807L21.9626 10.2812C21.6845 10.3676 21.3088 10.3982 20.8463 10.3696C19.6722 10.2864 18.4084 9.58769 15.9568 7.56433C15.3417 7.04909 14.8971 6.72147 14.4666 6.53015C14.0246 6.33378 13.6138 6.2879 13.0821 6.29818L13.0817 6.29819C11.6106 6.3289 9.32037 6.95822 6.41531 8.08791C4.7499 8.7285 4.17354 9.04821 3.74793 9.67643C3.61355 9.87463 3.51884 10.0368 3.4755 10.24C3.43411 10.4342 3.44404 10.6476 3.46649 10.9356L3.46655 10.9363C3.52028 11.601 3.70562 12.1313 4.07871 12.4914C4.45418 12.8538 4.97772 13.0036 5.61833 12.9985C6.17924 12.9984 6.64996 12.8738 7.87672 12.4291C10.5953 11.4595 11.7243 11.264 12.9291 11.4792L12.9292 11.4792C13.8727 11.6471 14.6201 12.0247 16.0667 13.1257C17.267 14.0411 18.0816 14.6099 18.7664 14.9475C19.4651 15.292 20.0274 15.3955 20.7159 15.3955H20.7195V15.3955C21.0655 15.3905 21.3186 15.3754 21.5808 15.3194C21.8418 15.2637 22.101 15.1697 22.4626 15.0199L22.4631 15.0197C23.8362 14.4476 28.7914 11.7749 31.832 9.96212C33.4956 8.97097 34.6012 8.50524 35.3126 8.44138C35.6148 8.41562 35.7208 8.41335 35.8177 8.442C35.9193 8.472 36.0278 8.54101 36.3055 8.74142C36.3056 8.74152 36.3057 8.74161 36.3059 8.74171L36.4522 8.539C37.1354 9.03424 37.5225 9.13329 37.9211 8.90548L33.2301 3.56162ZM33.2301 3.56162C33.138 3.26455 33.0743 3.05269 33.0723 2.88629C33.0698 2.67536 33.1625 2.54518 33.2596 2.4235C33.3366 2.32101 33.4519 2.22859 33.5656 2.15753C33.6816 2.08505 33.8183 2.02086 33.9517 1.98786C34.294 1.89173 34.7799 1.88613 35.2968 1.94014C35.8232 1.99514 36.409 2.11498 36.9599 2.28831L36.9606 2.28852C37.9189 2.59303 38.6068 2.91346 39.0561 3.33027C39.5214 3.76193 39.7134 4.27977 39.7196 4.92131V4.92137C39.7258 5.56839 39.4787 6.5126 39.1632 7.32458C39.004 7.73449 38.8229 8.12206 38.6392 8.43282C38.5474 8.58814 38.4527 8.72821 38.3571 8.84356C38.264 8.95584 38.1596 9.05768 38.0451 9.12252L33.2301 3.56162Z" fill="#E5802F" stroke="#E5802F" stroke-width="0.5"/>
<path d="M32.5904 14.828C31.7819 14.9369 30.8938 15.2638 30.5636 15.5709C29.9259 16.1651 29.7551 17.948 29.7324 24.1385C29.721 30.8639 29.8804 32.1515 30.8141 32.9241C31.6111 33.5778 32.6246 33.8452 34.3212 33.8452C36.792 33.8452 38.5228 33.142 38.8644 31.993C39.5021 29.8437 39.7298 23.2075 39.3313 18.4928C39.0694 15.4025 38.4203 14.8874 34.6628 14.7785C33.8771 14.7587 32.9434 14.7785 32.5904 14.828ZM36.6099 16.2246C37.0198 16.3137 37.3728 16.5811 37.6119 16.9773C37.8168 17.3339 37.9421 18.8692 38.0218 22.0585C38.1357 26.5553 37.8055 31.2006 37.3272 31.8345C37.2361 31.9732 36.9059 32.1812 36.6212 32.2902C36.1544 32.4784 35.8811 32.5081 34.435 32.5081C31.1785 32.5081 31.2012 32.5378 31.1898 24.8318C31.1898 19.9587 31.3379 17.0269 31.5998 16.591C31.7706 16.3236 32.1463 16.1849 32.9548 16.1057C33.8201 16.0265 36.0178 16.0958 36.6099 16.2246Z" fill="#E5802F"/>
<path d="M36.6099 16.2246C37.0198 16.3137 37.3728 16.5811 37.6119 16.9773C37.8168 17.3339 37.9421 18.8692 38.0218 22.0585C38.1357 26.5553 37.8055 31.2006 37.3272 31.8345C37.2361 31.9732 36.9059 32.1812 36.6212 32.2902C36.1544 32.4784 35.8811 32.5081 34.435 32.5081C31.1785 32.5081 31.2012 32.5378 31.1898 24.8318C31.1898 19.9587 31.3379 17.0269 31.5998 16.591C31.7706 16.3236 32.1463 16.1849 32.9548 16.1057C33.8201 16.0265 36.0178 16.0958 36.6099 16.2246Z" fill="#FCCBA9"/>
<path d="M32.5904 14.828C31.7819 14.9369 30.8938 15.2638 30.5636 15.5709C29.9259 16.1651 29.7551 17.948 29.7324 24.1385C29.721 30.8639 29.8804 32.1515 30.8141 32.9241C31.6111 33.5778 32.6246 33.8452 34.3212 33.8452C36.792 33.8452 38.5228 33.142 38.8644 31.993C39.5021 29.8437 39.7298 23.2075 39.3313 18.4928C39.0694 15.4025 38.4203 14.8874 34.6628 14.7785C33.8771 14.7587 32.9434 14.7785 32.5904 14.828ZM36.6099 16.2246C37.0198 16.3137 37.3728 16.5811 37.6119 16.9773C37.8168 17.3339 37.9421 18.8692 38.0218 22.0585C38.1357 26.5553 37.8055 31.2006 37.3272 31.8345C37.2361 31.9732 36.9059 32.1812 36.6212 32.2902C36.1544 32.4784 35.8811 32.5081 34.435 32.5081C31.1785 32.5081 31.2012 32.5378 31.1898 24.8318C31.1898 19.9587 31.3379 17.0269 31.5998 16.591C31.7706 16.3236 32.1463 16.1849 32.9548 16.1057C33.8201 16.0265 36.0178 16.0958 36.6099 16.2246Z" stroke="#E5802F" stroke-width="0.8"/>
<path d="M36.6099 16.2246C37.0198 16.3137 37.3728 16.5811 37.6119 16.9773C37.8168 17.3339 37.9421 18.8692 38.0218 22.0585C38.1357 26.5553 37.8055 31.2006 37.3272 31.8345C37.2361 31.9732 36.9059 32.1812 36.6212 32.2902C36.1544 32.4784 35.8811 32.5081 34.435 32.5081C31.1785 32.5081 31.2012 32.5378 31.1898 24.8318C31.1898 19.9587 31.3379 17.0269 31.5998 16.591C31.7706 16.3236 32.1463 16.1849 32.9548 16.1057C33.8201 16.0265 36.0178 16.0958 36.6099 16.2246Z" stroke="#E5802F" stroke-width="0.8"/>
<path d="M6.5987 16.8564C6.31404 16.9059 5.81303 17.0743 5.47143 17.2229C4.19613 17.7874 4.09365 18.3322 4.08227 24.384C4.05949 30.3566 4.20752 31.6344 4.98181 32.3376C5.38034 32.7041 6.15463 33.0507 6.91753 33.1894C7.78291 33.3479 9.77556 33.3281 10.6751 33.1498C11.6543 32.9517 12.7361 32.4367 13.0207 32.0206C13.5559 31.2085 13.9431 27.2862 13.852 23.552C13.7495 19.6892 13.5901 18.5204 13.0663 17.8469C12.4514 17.0743 11.6202 16.8564 8.98989 16.8069C7.95371 16.7871 6.88337 16.8069 6.5987 16.8564ZM10.8914 18.2926C11.8821 18.5501 12.0529 18.7383 12.1895 19.7783C12.2578 20.2636 12.3148 22.3139 12.3148 24.3345C12.3262 27.2267 12.292 28.2964 12.1326 29.386C11.8251 31.565 11.8365 31.5452 10.7093 31.8126C10.3449 31.8919 10.1172 31.8919 9.67308 31.773C8.26114 31.4066 7.39576 30.733 6.97446 29.7029C6.79227 29.2374 6.7695 28.7719 6.7695 24.6317C6.7695 19.3722 6.78089 19.293 7.68043 18.4709L8.18144 18.0153L9.24039 18.0747C9.82111 18.1044 10.5726 18.2034 10.8914 18.2926Z" fill="#E5802F"/>
<path d="M10.8914 18.2926C11.8821 18.5501 12.0529 18.7383 12.1895 19.7783C12.2578 20.2636 12.3148 22.3139 12.3148 24.3345C12.3262 27.2267 12.292 28.2964 12.1326 29.386C11.8251 31.565 11.8365 31.5452 10.7093 31.8126C10.3449 31.8919 10.1172 31.8919 9.67308 31.773C8.26114 31.4066 7.39576 30.733 6.97446 29.7029C6.79227 29.2374 6.7695 28.7719 6.7695 24.6317C6.7695 19.3722 6.78089 19.293 7.68043 18.4709L8.18144 18.0153L9.24039 18.0747C9.82111 18.1044 10.5726 18.2034 10.8914 18.2926Z" fill="#FCCBA9"/>
<path d="M6.5987 16.8564C6.31404 16.9059 5.81303 17.0743 5.47143 17.2229C4.19613 17.7874 4.09365 18.3322 4.08227 24.384C4.05949 30.3566 4.20752 31.6344 4.98181 32.3376C5.38034 32.7041 6.15463 33.0507 6.91753 33.1894C7.78291 33.3479 9.77556 33.3281 10.6751 33.1498C11.6543 32.9517 12.7361 32.4367 13.0207 32.0206C13.5559 31.2085 13.9431 27.2862 13.852 23.552C13.7495 19.6892 13.5901 18.5204 13.0663 17.8469C12.4514 17.0743 11.6202 16.8564 8.98989 16.8069C7.95371 16.7871 6.88337 16.8069 6.5987 16.8564ZM10.8914 18.2926C11.8821 18.5501 12.0529 18.7383 12.1895 19.7783C12.2578 20.2636 12.3148 22.3139 12.3148 24.3345C12.3262 27.2267 12.292 28.2964 12.1326 29.386C11.8251 31.565 11.8365 31.5452 10.7093 31.8126C10.3449 31.8919 10.1172 31.8919 9.67308 31.773C8.26114 31.4066 7.39576 30.733 6.97446 29.7029C6.79227 29.2374 6.7695 28.7719 6.7695 24.6317C6.7695 19.3722 6.78089 19.293 7.68043 18.4709L8.18144 18.0153L9.24039 18.0747C9.82111 18.1044 10.5726 18.2034 10.8914 18.2926Z" stroke="#E5802F" stroke-width="0.8"/>
<path d="M10.8914 18.2926C11.8821 18.5501 12.0529 18.7383 12.1895 19.7783C12.2578 20.2636 12.3148 22.3139 12.3148 24.3345C12.3262 27.2267 12.292 28.2964 12.1326 29.386C11.8251 31.565 11.8365 31.5452 10.7093 31.8126C10.3449 31.8919 10.1172 31.8919 9.67308 31.773C8.26114 31.4066 7.39576 30.733 6.97446 29.7029C6.79227 29.2374 6.7695 28.7719 6.7695 24.6317C6.7695 19.3722 6.78089 19.293 7.68043 18.4709L8.18144 18.0153L9.24039 18.0747C9.82111 18.1044 10.5726 18.2034 10.8914 18.2926Z" stroke="#E5802F" stroke-width="0.8"/>
<path d="M19.2243 20.6721C17.8237 20.8702 17.3569 21.1872 17.0722 22.1182C16.7192 23.2672 16.5484 28.5762 16.7875 30.567C16.9811 32.1023 17.243 32.6173 18.0401 32.964C19.0535 33.4196 21.9798 33.5979 23.5398 33.3107C24.4279 33.1522 25.3958 32.7263 25.6463 32.3895C25.8627 32.1023 26.0676 31.3396 26.3181 29.8935C26.7166 27.6154 26.4889 22.7125 25.9424 21.722C25.6919 21.2565 25.0087 20.9198 24.075 20.791C23.0502 20.6523 19.9302 20.5731 19.2243 20.6721ZM24.1091 22.1083C24.8834 22.3857 24.929 22.554 24.9631 25.783C24.9973 28.7545 24.8265 30.8147 24.4735 31.5476C24.2685 31.9636 23.9953 32.0726 22.7769 32.231C20.9664 32.4688 19.3154 32.3697 18.7233 31.9834C18.1995 31.6566 18.1425 31.092 18.1198 26.9221C18.097 22.9205 18.1312 22.5937 18.598 22.2272C18.9396 21.9598 19.7822 21.8805 21.8204 21.9201C23.1413 21.9499 23.8358 22.0093 24.1091 22.1083Z" fill="#E5802F"/>
<path d="M24.1091 22.1083C24.8834 22.3857 24.929 22.554 24.9631 25.783C24.9973 28.7545 24.8265 30.8147 24.4735 31.5476C24.2685 31.9636 23.9953 32.0726 22.7769 32.231C20.9664 32.4688 19.3154 32.3697 18.7233 31.9834C18.1995 31.6566 18.1425 31.092 18.1198 26.9221C18.097 22.9205 18.1312 22.5937 18.598 22.2272C18.9396 21.9598 19.7822 21.8805 21.8204 21.9201C23.1413 21.9499 23.8358 22.0093 24.1091 22.1083Z" fill="#FCCBA9"/>
<path d="M19.2243 20.6721C17.8237 20.8702 17.3569 21.1872 17.0722 22.1182C16.7192 23.2672 16.5484 28.5762 16.7875 30.567C16.9811 32.1023 17.243 32.6173 18.0401 32.964C19.0535 33.4196 21.9798 33.5979 23.5398 33.3107C24.4279 33.1522 25.3958 32.7263 25.6463 32.3895C25.8627 32.1023 26.0676 31.3396 26.3181 29.8935C26.7166 27.6154 26.4889 22.7125 25.9424 21.722C25.6919 21.2565 25.0087 20.9198 24.075 20.791C23.0502 20.6523 19.9302 20.5731 19.2243 20.6721ZM24.1091 22.1083C24.8834 22.3857 24.929 22.554 24.9631 25.783C24.9973 28.7545 24.8265 30.8147 24.4735 31.5476C24.2685 31.9636 23.9953 32.0726 22.7769 32.231C20.9664 32.4688 19.3154 32.3697 18.7233 31.9834C18.1995 31.6566 18.1425 31.092 18.1198 26.9221C18.097 22.9205 18.1312 22.5937 18.598 22.2272C18.9396 21.9598 19.7822 21.8805 21.8204 21.9201C23.1413 21.9499 23.8358 22.0093 24.1091 22.1083Z" stroke="#E5802F" stroke-width="0.8"/>
<path d="M24.1091 22.1083C24.8834 22.3857 24.929 22.554 24.9631 25.783C24.9973 28.7545 24.8265 30.8147 24.4735 31.5476C24.2685 31.9636 23.9953 32.0726 22.7769 32.231C20.9664 32.4688 19.3154 32.3697 18.7233 31.9834C18.1995 31.6566 18.1425 31.092 18.1198 26.9221C18.097 22.9205 18.1312 22.5937 18.598 22.2272C18.9396 21.9598 19.7822 21.8805 21.8204 21.9201C23.1413 21.9499 23.8358 22.0093 24.1091 22.1083Z" stroke="#E5802F" stroke-width="0.8"/>
<path d="M18.4691 36.088C13.1001 36.2541 7.8793 36.5745 7.12696 36.788C5.91865 37.1439 5.24609 37.9862 5.24609 39.1607C5.24609 40.4301 5.97564 41.2962 7.35494 41.6402C8.87103 42.0317 21.0454 42.2927 27.5087 42.0792C32.8549 41.9012 35.1575 41.747 35.8529 41.5335C37.084 41.1657 37.882 40.0268 37.8934 38.615C37.9048 37.7252 37.654 37.2151 36.97 36.7287C36.1493 36.1474 35.9327 36.1355 27.5885 36.088C23.291 36.0643 19.1873 36.0643 18.4691 36.088ZM35.9897 37.832C36.4343 38.0811 36.5596 38.4845 36.3773 39.1014C36.1949 39.7183 35.7047 40.1336 35.0322 40.2166C33.0259 40.4657 28.489 40.5844 20.92 40.5725C11.6182 40.5725 8.0161 40.442 7.33214 40.0861C6.47721 39.659 6.39741 38.8167 7.16116 38.354C7.46893 38.1642 7.9705 38.093 9.98815 37.9625C14.639 37.6422 17.3064 37.5829 26.4486 37.6066C34.9752 37.6185 35.6477 37.6303 35.9897 37.832Z" fill="#E5802F"/>
<path d="M35.9897 37.832C36.4343 38.0811 36.5596 38.4845 36.3773 39.1014C36.1949 39.7183 35.7047 40.1336 35.0322 40.2166C33.0259 40.4657 28.489 40.5844 20.92 40.5725C11.6182 40.5725 8.0161 40.442 7.33214 40.0861C6.47721 39.659 6.39741 38.8167 7.16116 38.354C7.46893 38.1642 7.9705 38.093 9.98815 37.9625C14.639 37.6422 17.3064 37.5829 26.4486 37.6066C34.9752 37.6185 35.6477 37.6303 35.9897 37.832Z" fill="#FCCBA9"/>
<path d="M18.4691 36.088C13.1001 36.2541 7.8793 36.5745 7.12696 36.788C5.91865 37.1439 5.24609 37.9862 5.24609 39.1607C5.24609 40.4301 5.97564 41.2962 7.35494 41.6402C8.87103 42.0317 21.0454 42.2927 27.5087 42.0792C32.8549 41.9012 35.1575 41.747 35.8529 41.5335C37.084 41.1657 37.882 40.0268 37.8934 38.615C37.9048 37.7252 37.654 37.2151 36.97 36.7287C36.1493 36.1474 35.9327 36.1355 27.5885 36.088C23.291 36.0643 19.1873 36.0643 18.4691 36.088ZM35.9897 37.832C36.4343 38.0811 36.5596 38.4845 36.3773 39.1014C36.1949 39.7183 35.7047 40.1336 35.0322 40.2166C33.0259 40.4657 28.489 40.5844 20.92 40.5725C11.6182 40.5725 8.0161 40.442 7.33214 40.0861C6.47721 39.659 6.39741 38.8167 7.16116 38.354C7.46893 38.1642 7.9705 38.093 9.98815 37.9625C14.639 37.6422 17.3064 37.5829 26.4486 37.6066C34.9752 37.6185 35.6477 37.6303 35.9897 37.832Z" stroke="#E5802F" stroke-width="0.8"/>
<path d="M35.9897 37.832C36.4343 38.0811 36.5596 38.4845 36.3773 39.1014C36.1949 39.7183 35.7047 40.1336 35.0322 40.2166C33.0259 40.4657 28.489 40.5844 20.92 40.5725C11.6182 40.5725 8.0161 40.442 7.33214 40.0861C6.47721 39.659 6.39741 38.8167 7.16116 38.354C7.46893 38.1642 7.9705 38.093 9.98815 37.9625C14.639 37.6422 17.3064 37.5829 26.4486 37.6066C34.9752 37.6185 35.6477 37.6303 35.9897 37.832Z" stroke="#E5802F" stroke-width="0.8"/>
<path d="M34.1075 3.06353C34.1075 3.06353 38.93 1.88787 39.5827 3.97109C40.0576 5.48667 38.9623 8.53645 38.1953 9.09849C37.0172 9.96183 35.5 8 35.5 8L34.1075 3.06353Z" fill="#E5802F"/>
</svg>
