<svg width="44" height="44" viewBox="0 0 44 44" fill="none" xmlns="http://www.w3.org/2000/svg">
<path fill-rule="evenodd" clip-rule="evenodd" d="M11.0316 4.97874C8.21835 5.3543 6.35255 7.26966 5.93685 10.2084C5.69517 11.9642 6.34288 14.0298 7.5223 15.2879L7.97667 15.7667L7.24195 16.1235C5.02812 17.1845 3.46201 18.5928 2.65962 20.2641C1.87656 21.8978 1.77988 23.8601 2.4276 25.1088C3.16232 26.5078 5.33747 27.6814 8.16035 28.2072C8.72106 28.3105 8.76939 28.3386 8.71139 28.517C8.00567 30.8643 8.01534 32.7796 8.75006 34.188C9.53312 35.6902 11.4666 37.0329 14.0671 37.8685C16.8416 38.7698 21.337 39.2581 24.5659 39.0046C29.9796 38.5821 33.8852 36.9484 35.0646 34.6105C35.374 34.0096 35.3933 33.9157 35.3837 33.0331C35.3837 31.9722 35.0743 30.6108 34.5716 29.3714C34.2332 28.5546 34.2622 28.4795 34.8713 28.4795C35.4707 28.4795 37.2978 28.1227 38.1679 27.8316C39.9563 27.2495 41.0487 26.5359 41.6288 25.6064C41.9285 25.1182 41.9671 24.9774 41.9961 24.3014C42.0831 22.2733 40.691 19.4378 38.7672 17.6821C38.1872 17.1657 36.6308 16.0766 36.2924 15.9733C36.2151 15.9451 36.3407 15.7386 36.6308 15.4193C38.4482 13.4007 38.7672 10.1615 37.3558 7.84239C36.6211 6.62182 35.1903 5.55146 33.7499 5.13835C32.9765 4.9224 31.4587 4.9224 30.608 5.13835C29.3416 5.46696 28.0171 6.40587 27.3211 7.44805C27.1471 7.71094 26.9924 7.9175 26.973 7.9175C26.9537 7.9175 26.7314 7.77667 26.48 7.59827C25.813 7.13821 24.9332 6.73449 24.1115 6.49976C23.0964 6.21809 21.2403 6.15236 20.1576 6.36831C19.1811 6.55609 18.0501 6.96921 17.4604 7.35416C17.2187 7.50438 16.9963 7.63583 16.9673 7.63583C16.9383 7.63583 16.716 7.40111 16.484 7.11005C15.2272 5.57024 13.0327 4.70646 11.0316 4.97874ZM12.965 6.27442C13.8544 6.49976 14.5988 6.94104 15.2852 7.65461C15.6332 8.002 15.9136 8.34001 15.9136 8.38695C15.9136 8.44329 15.7106 8.74374 15.4689 9.06296C14.8792 9.84225 14.2411 11.1473 13.9801 12.1426C13.8544 12.6402 13.7578 13.3631 13.7288 14.0673C13.6611 15.5602 13.6514 15.6071 13.2454 15.7667C12.7814 15.9545 11.2829 15.9451 10.5965 15.748C8.43103 15.1283 7.11627 13.3537 7.11627 11.0722C7.11627 9.32585 7.87033 7.7485 9.08842 6.93165C10.1712 6.21809 11.6889 5.9552 12.965 6.27442ZM33.2278 6.26503C35.0646 6.64998 36.5341 8.13344 36.9401 10.03C37.5202 12.7435 36.0314 15.2691 33.4985 15.8512C32.7058 16.0296 31.8647 16.0296 31.1397 15.8512C30.2406 15.6259 30.1633 15.4944 30.0956 14.1049C30.0183 12.3116 29.5252 10.9595 28.4425 9.48547L27.9205 8.78129L28.2105 8.29306C28.7905 7.3166 29.8443 6.56548 31.072 6.28381C31.7874 6.10542 32.4448 6.10542 33.2278 6.26503ZM23.5991 7.58888C26.045 8.18978 28.1041 10.3305 28.7228 12.8937C28.9645 13.8983 28.9452 15.6071 28.6842 16.6024C27.9108 19.4848 25.8033 21.325 22.8064 21.7194C19.9739 22.0855 16.9673 20.5645 15.7299 18.114C15.1692 17.0155 15.0338 16.4146 14.9758 14.8935C14.9275 13.7293 14.9468 13.4382 15.1305 12.6683C15.8459 9.69202 17.9244 7.80483 20.9406 7.41988C21.5207 7.34477 22.9901 7.43866 23.5991 7.58888ZM11.6599 17.1C12.4237 17.1281 12.9554 17.0906 13.3614 17.0061L13.9511 16.8652L14.1735 17.5319C14.2895 17.898 14.5021 18.405 14.6278 18.6679C14.9565 19.3064 15.8459 20.4331 16.3776 20.8744C16.629 21.0715 16.803 21.2593 16.7836 21.2781C16.7546 21.2969 16.2809 21.5222 15.7202 21.7851C13.5257 22.7991 11.5729 24.2168 10.4322 25.644C9.3881 26.9397 9.23343 27.0711 8.75973 27.0711C7.88966 27.0711 6.05286 26.489 4.94112 25.8693C3.47167 25.0431 2.92063 23.7943 3.288 22.1231C3.7617 19.9448 5.78217 17.9262 8.64372 16.7901L9.14642 16.593L9.85214 16.8183C10.3838 16.9967 10.8092 17.0624 11.6599 17.1ZM35.78 17.0718C37.7908 18.1891 39.4898 19.6444 40.3308 21.4283C40.6982 22.1888 41.0753 23.047 40.8554 24.1417C40.4615 26.1025 38.7479 26.7425 35.5383 27.212C35.0356 27.2871 34.4169 27.3528 34.1752 27.3528H34.1645C34.0254 27.3528 33.9236 27.3528 33.8294 27.3269C33.5725 27.2562 33.3718 26.9927 32.6238 26.0106L32.6091 25.9914C31.391 24.3952 29.6896 22.9587 27.8141 21.9071L26.9344 21.4283L27.4758 20.9495C28.4232 20.0951 29.4382 18.4708 29.7379 17.2784C29.8056 17.0342 29.8829 16.8183 29.9216 16.7995C29.9603 16.7714 30.2406 16.8465 30.5596 16.9591C31.449 17.2596 33.1988 17.2314 34.1849 16.9122C34.5259 16.791 34.8311 16.6977 34.9282 16.668L34.9583 16.6587C34.9873 16.6493 35.3547 16.8371 35.78 17.0718ZM22 23C20.2813 22.9566 18 22 18 22L16.4066 22.7522C16.4066 22.7522 15.9329 22.9775 15.4302 23.2498C11.4569 25.3811 9.43644 28.1321 9.43644 31.4276C9.43644 33.2679 9.85214 34.1598 11.1379 35.1269C12.2496 35.9625 14.3475 36.8451 16.2036 37.2488C18.0114 37.6525 21.7435 37.8321 21.7435 37.8321L23.2221 37.8309C23.2221 37.8183 26.6927 37.6244 27.8238 37.399C30.5016 36.8545 32.6961 35.8029 33.6919 34.5823C34.3009 33.8312 34.4073 33.2397 34.1366 32.0004C33.7595 30.2915 32.9088 28.3762 31.9131 27.0242C30.9753 25.7379 29.3222 24.2262 27.9301 23.3812C27.6981 23.2404 27.5048 23.1277 27.4758 23.1277C27.4717 23.1277 27.5708 23.1848 27.4758 23.1277L25.9688 22.3514C25.4757 22.3768 23.514 23.0382 22 23Z" fill="#E5802F"/>
<path d="M12.965 6.27442C13.8544 6.49976 14.5988 6.94104 15.2852 7.65461C15.6332 8.002 15.9136 8.34001 15.9136 8.38695C15.9136 8.44329 15.7106 8.74374 15.4689 9.06296C14.8792 9.84225 14.2411 11.1473 13.9801 12.1426C13.8544 12.6402 13.7578 13.3631 13.7288 14.0673C13.6611 15.5602 13.6514 15.6071 13.2454 15.7667C12.7814 15.9545 11.2829 15.9451 10.5965 15.748C8.43103 15.1283 7.11627 13.3537 7.11627 11.0722C7.11627 9.32585 7.87033 7.7485 9.08842 6.93165C10.1712 6.21809 11.6889 5.9552 12.965 6.27442Z" fill="#FCCBA9"/>
<path d="M11.6599 17.1C12.4237 17.1281 12.9554 17.0906 13.3614 17.0061L13.9511 16.8652L14.1735 17.5319C14.2895 17.898 14.5021 18.405 14.6278 18.6679C14.9565 19.3064 15.8459 20.4331 16.3776 20.8744C16.629 21.0715 16.803 21.2593 16.7836 21.2781C16.7546 21.2969 16.2809 21.5222 15.7202 21.7851C13.5257 22.7991 11.5729 24.2168 10.4322 25.644C9.3881 26.9397 9.23343 27.0711 8.75973 27.0711C7.88966 27.0711 6.05286 26.489 4.94112 25.8693C3.47167 25.0431 2.92063 23.7943 3.288 22.1231C3.7617 19.9448 5.78217 17.9262 8.64372 16.7901L9.14642 16.593L9.85214 16.8183C10.3838 16.9967 10.8092 17.0624 11.6599 17.1Z" fill="#FCCBA9"/>
<path d="M23.5991 7.58888C26.045 8.18978 28.1041 10.3305 28.7228 12.8937C28.9645 13.8983 28.9452 15.6071 28.6842 16.6024C27.9108 19.4848 25.8033 21.325 22.8064 21.7194C19.9739 22.0855 16.9673 20.5645 15.7299 18.114C15.1692 17.0155 15.0338 16.4146 14.9758 14.8935C14.9275 13.7293 14.9468 13.4382 15.1305 12.6683C15.8459 9.69202 17.9244 7.80483 20.9406 7.41988C21.5207 7.34477 22.9901 7.43866 23.5991 7.58888Z" fill="#FCCBA9"/>
<path d="M21.7435 37.8321C21.7435 37.8321 18.0114 37.6525 16.2036 37.2488C14.3475 36.8451 12.2496 35.9625 11.1379 35.1269C9.85214 34.1598 9.43644 33.2679 9.43644 31.4276C9.43644 28.1321 11.4569 25.3811 15.4302 23.2498C15.9329 22.9775 16.4066 22.7522 16.4066 22.7522L18 22C18 22 20.2813 22.9566 22 23C23.514 23.0382 25.4757 22.3768 25.9688 22.3514L27.4758 23.1277C27.5048 23.1277 27.6981 23.2404 27.9301 23.3812C29.3222 24.2262 30.9753 25.7379 31.9131 27.0242C32.9088 28.3762 33.7595 30.2915 34.1366 32.0004C34.4073 33.2397 34.3009 33.8312 33.6919 34.5823C32.6961 35.8029 30.5016 36.8545 27.8238 37.399C26.6927 37.6244 23.2221 37.8183 23.2221 37.8309L21.7435 37.8321Z" fill="#FCCBA9"/>
<path d="M35.78 17.0718C37.7908 18.1891 39.4898 19.6444 40.3308 21.4283C40.6982 22.1888 41.0753 23.047 40.8554 24.1417C40.4615 26.1025 38.7479 26.7425 35.5383 27.212C35.0356 27.2871 34.4169 27.3528 34.1752 27.3528H34.1645C34.0254 27.3528 33.9236 27.3528 33.8294 27.3269C33.5725 27.2562 33.3718 26.9927 32.6238 26.0106L32.6091 25.9914C31.391 24.3952 29.6896 22.9587 27.8141 21.9071L26.9344 21.4283L27.4758 20.9495C28.4232 20.0951 29.4382 18.4708 29.7379 17.2784C29.8056 17.0342 29.8829 16.8183 29.9216 16.7995C29.9603 16.7714 30.2406 16.8465 30.5596 16.9591C31.449 17.2596 33.1988 17.2314 34.1849 16.9122C34.5259 16.791 34.8311 16.6977 34.9282 16.668L34.9583 16.6587C34.9873 16.6493 35.3547 16.8371 35.78 17.0718Z" fill="#FCCBA9"/>
<path d="M33.2278 6.26503C35.0646 6.64998 36.5341 8.13344 36.9401 10.03C37.5202 12.7435 36.0314 15.2691 33.4985 15.8512C32.7058 16.0296 31.8647 16.0296 31.1397 15.8512C30.2406 15.6259 30.1633 15.4944 30.0956 14.1049C30.0183 12.3116 29.5252 10.9595 28.4425 9.48547L27.9205 8.78129L28.2105 8.29306C28.7905 7.3166 29.8443 6.56548 31.072 6.28381C31.7874 6.10542 32.4448 6.10542 33.2278 6.26503Z" fill="#FCCBA9"/>
<path d="M34.1752 27.3528C34.4169 27.3528 35.0356 27.2871 35.5383 27.2119C38.7479 26.7425 40.4615 26.1025 40.8554 24.1417C41.0753 23.047 40.6982 22.1888 40.3308 21.4283C39.4898 19.6444 37.7908 18.1891 35.78 17.0718C35.3547 16.8371 34.9873 16.6493 34.9583 16.6587M34.1752 27.3528H34.1645M34.1752 27.3528C34.1716 27.3528 34.168 27.3528 34.1645 27.3528M32.6091 25.9914C31.391 24.3952 29.6896 22.9587 27.8141 21.9071L26.9344 21.4283L27.4758 20.9495C28.4232 20.0951 29.4382 18.4708 29.7379 17.2784C29.8056 17.0342 29.8829 16.8183 29.9216 16.7995C29.9603 16.7714 30.2406 16.8465 30.5596 16.9591C31.449 17.2596 33.1988 17.2314 34.1849 16.9122C34.5259 16.791 34.8311 16.6977 34.9282 16.668M32.6091 25.9914L32.6238 26.0106M32.6091 25.9914C32.614 25.9978 32.6189 26.0042 32.6238 26.0106M34.9583 16.6587C34.9542 16.66 34.944 16.6631 34.9282 16.668M34.9583 16.6587L34.9282 16.668M27.4758 23.1277C27.5048 23.1277 27.6981 23.2404 27.9301 23.3812C29.3222 24.2262 30.9753 25.7379 31.9131 27.0242C32.9088 28.3762 33.7595 30.2915 34.1366 32.0004C34.4073 33.2397 34.3009 33.8312 33.6919 34.5823C32.6961 35.8029 30.5016 36.8545 27.8238 37.399C26.6927 37.6244 23.2221 37.8183 23.2221 37.8309L21.7435 37.8321C21.7435 37.8321 18.0114 37.6525 16.2036 37.2488C14.3475 36.8451 12.2496 35.9625 11.1379 35.1269C9.85214 34.1598 9.43644 33.2679 9.43644 31.4276C9.43644 28.1321 11.4569 25.3811 15.4302 23.2498C15.9329 22.9775 16.4066 22.7522 16.4066 22.7522L18 22C18 22 20.2813 22.9567 22 23C23.514 23.0382 25.4757 22.3768 25.9688 22.3514L27.4758 23.1277ZM27.4758 23.1277C27.4717 23.1277 27.5708 23.1848 27.4758 23.1277ZM34.1645 27.3528C34.0254 27.3528 33.9236 27.3528 33.8294 27.3269C33.5725 27.2562 33.3718 26.9927 32.6238 26.0106M11.0316 4.97874C8.21835 5.3543 6.35255 7.26966 5.93685 10.2084C5.69517 11.9642 6.34288 14.0298 7.5223 15.2879L7.97667 15.7667L7.24195 16.1235C5.02812 17.1845 3.46201 18.5928 2.65962 20.2641C1.87656 21.8978 1.77988 23.8601 2.4276 25.1088C3.16232 26.5078 5.33747 27.6814 8.16035 28.2072C8.72106 28.3105 8.76939 28.3386 8.71139 28.517C8.00567 30.8643 8.01534 32.7796 8.75006 34.188C9.53312 35.6902 11.4666 37.0329 14.0671 37.8685C16.8416 38.7698 21.337 39.2581 24.5659 39.0046C29.9796 38.5821 33.8852 36.9484 35.0646 34.6105C35.374 34.0096 35.3933 33.9157 35.3837 33.0331C35.3837 31.9722 35.0743 30.6108 34.5716 29.3714C34.2332 28.5546 34.2622 28.4795 34.8713 28.4795C35.4707 28.4795 37.2978 28.1227 38.1679 27.8316C39.9563 27.2495 41.0487 26.5359 41.6288 25.6064C41.9285 25.1182 41.9671 24.9774 41.9961 24.3014C42.0831 22.2733 40.691 19.4378 38.7672 17.6821C38.1872 17.1657 36.6308 16.0766 36.2924 15.9733C36.2151 15.9451 36.3407 15.7386 36.6308 15.4193C38.4482 13.4007 38.7672 10.1615 37.3558 7.84239C36.6211 6.62182 35.1903 5.55147 33.7499 5.13835C32.9765 4.9224 31.4587 4.9224 30.608 5.13835C29.3416 5.46696 28.0171 6.40587 27.3211 7.44805C27.1471 7.71094 26.9924 7.9175 26.973 7.9175C26.9537 7.9175 26.7314 7.77667 26.48 7.59827C25.813 7.13821 24.9332 6.73449 24.1115 6.49976C23.0964 6.21809 21.2403 6.15236 20.1576 6.36831C19.1811 6.55609 18.0501 6.96921 17.4604 7.35416C17.2187 7.50438 16.9963 7.63583 16.9673 7.63583C16.9383 7.63583 16.716 7.40111 16.484 7.11005C15.2272 5.57024 13.0327 4.70645 11.0316 4.97874ZM12.965 6.27442C13.8544 6.49976 14.5988 6.94104 15.2852 7.65461C15.6332 8.002 15.9136 8.34001 15.9136 8.38695C15.9136 8.44329 15.7106 8.74374 15.4689 9.06296C14.8792 9.84225 14.2411 11.1473 13.9801 12.1426C13.8544 12.6402 13.7578 13.3631 13.7288 14.0673C13.6611 15.5602 13.6514 15.6071 13.2454 15.7667C12.7814 15.9545 11.2829 15.9451 10.5965 15.748C8.43103 15.1283 7.11627 13.3537 7.11627 11.0722C7.11627 9.32585 7.87033 7.7485 9.08842 6.93165C10.1712 6.21809 11.6889 5.95519 12.965 6.27442ZM33.2278 6.26503C35.0646 6.64998 36.5341 8.13344 36.9401 10.03C37.5202 12.7435 36.0314 15.2691 33.4985 15.8512C32.7058 16.0296 31.8647 16.0296 31.1397 15.8512C30.2406 15.6259 30.1633 15.4944 30.0956 14.1049C30.0183 12.3116 29.5252 10.9595 28.4425 9.48547L27.9205 8.78129L28.2105 8.29306C28.7905 7.3166 29.8443 6.56548 31.072 6.28381C31.7874 6.10542 32.4448 6.10542 33.2278 6.26503ZM23.5991 7.58888C26.045 8.18978 28.1041 10.3305 28.7228 12.8937C28.9645 13.8983 28.9452 15.6071 28.6842 16.6024C27.9108 19.4848 25.8033 21.325 22.8064 21.7194C19.9739 22.0855 16.9673 20.5645 15.7299 18.114C15.1692 17.0155 15.0338 16.4146 14.9758 14.8935C14.9275 13.7293 14.9468 13.4382 15.1305 12.6683C15.8459 9.69202 17.9244 7.80483 20.9406 7.41988C21.5207 7.34477 22.9901 7.43866 23.5991 7.58888ZM11.6599 17.1C12.4237 17.1281 12.9554 17.0906 13.3614 17.0061L13.9511 16.8652L14.1735 17.5319C14.2895 17.898 14.5021 18.405 14.6278 18.6679C14.9565 19.3064 15.8459 20.4331 16.3776 20.8744C16.629 21.0715 16.803 21.2593 16.7836 21.2781C16.7546 21.2969 16.2809 21.5222 15.7202 21.7851C13.5257 22.7991 11.5729 24.2168 10.4322 25.644C9.3881 26.9397 9.23343 27.0711 8.75973 27.0711C7.88966 27.0711 6.05286 26.489 4.94112 25.8693C3.47167 25.0431 2.92063 23.7943 3.288 22.1231C3.7617 19.9448 5.78217 17.9262 8.64372 16.7901L9.14642 16.593L9.85214 16.8183C10.3838 16.9967 10.8092 17.0624 11.6599 17.1Z" stroke="#E5802F" stroke-width="1.5"/>
</svg>
